<svg width="23" height="23" viewBox="0 0 23 23" fill="none" xmlns="http://www.w3.org/2000/svg">
<path d="M20.6334 19.6166L16.1349 15.119C17.4387 13.5536 18.0889 11.5459 17.9501 9.5134C17.8113 7.4809 16.8943 5.58015 15.3898 4.20654C13.8853 2.83294 11.9092 2.09223 9.8725 2.13852C7.8358 2.18481 5.89535 3.01452 4.45481 4.45506C3.01428 5.8956 2.18456 7.83605 2.13828 9.87275C2.09199 11.9095 2.83269 13.8856 4.2063 15.3901C5.5799 16.8946 7.48066 17.8116 9.51315 17.9504C11.5457 18.0891 13.5534 17.439 15.1187 16.1351L19.6163 20.6336C19.6831 20.7004 19.7624 20.7534 19.8496 20.7895C19.9369 20.8256 20.0304 20.8442 20.1248 20.8442C20.2193 20.8442 20.3128 20.8256 20.4 20.7895C20.4873 20.7534 20.5666 20.7004 20.6334 20.6336C20.7001 20.5668 20.7531 20.4875 20.7892 20.4003C20.8254 20.313 20.844 20.2195 20.844 20.1251C20.844 20.0306 20.8254 19.9371 20.7892 19.8499C20.7531 19.7626 20.7001 19.6833 20.6334 19.6166ZM3.59359 10.0626C3.59359 8.78319 3.97297 7.53252 4.68377 6.46874C5.39457 5.40496 6.40485 4.57584 7.58686 4.08624C8.76886 3.59663 10.0695 3.46853 11.3243 3.71813C12.5791 3.96773 13.7318 4.58381 14.6364 5.48849C15.5411 6.39316 16.1572 7.54578 16.4068 8.80059C16.6564 10.0554 16.5283 11.3561 16.0387 12.5381C15.5491 13.7201 14.72 14.7304 13.6562 15.4412C12.5924 16.1519 11.3417 16.5313 10.0623 16.5313C8.3473 16.5294 6.70306 15.8473 5.49034 14.6346C4.27763 13.4219 3.59549 11.7776 3.59359 10.0626Z" fill="#333333"/>
</svg>
